<svg xmlns="http://www.w3.org/2000/svg" width="223" height="256" viewBox="0 0 223 256">
<g>
<path d="M 0.00 0.00 L 194.96 0.00 L 195.62 2.75 C196.68,7.21 200.98,18.32 202.58,20.76 C204.24,23.29 204.85,23.24 216.00,19.50 L 222.50 17.32 L 222.79 8.66 L 223.00 2.33 L 223.00 256.00 L 0.00 256.00 ZM 95.37 227.99 C104.57,230.07 118.36,230.48 128.00,228.96 C134.97,227.86 148.65,223.75 153.21,221.39 C155.89,220.00 156.99,218.00 155.07,218.00 C154.56,218.00 152.69,215.46 150.92,212.35 C147.83,206.95 147.77,206.64 149.53,205.35 C153.15,202.71 154.88,203.71 158.16,210.38 L 161.31 216.75 L 164.46 214.89 C172.61,210.08 189.69,193.13 187.90,191.63 C187.68,191.44 185.36,190.06 182.75,188.55 C177.89,185.75 177.09,184.31 179.20,182.20 C181.01,180.39 183.15,180.74 187.21,183.50 C189.24,184.88 191.30,186.00 191.80,186.00 C193.40,186.00 198.86,172.76 201.07,163.50 C204.08,150.91 203.42,133.04 199.55,121.88 C197.24,115.22 196.25,112.36 194.52,111.79 C193.22,111.37 191.49,112.24 188.46,113.77 L 188.40 113.80 C181.85,117.11 179.00,116.75 179.00,112.63 C179.00,110.85 180.28,109.76 185.00,107.50 C188.30,105.92 191.00,104.38 190.99,104.07 C190.99,103.75 188.65,100.40 185.81,96.62 C180.41,89.42 167.61,78.56 158.81,73.69 C142.79,64.83 122.05,61.02 102.50,63.35 C92.98,64.48 77.40,69.36 71.65,73.00 C69.06,74.65 66.52,76.00 66.01,76.00 C64.95,76.00 60.15,79.18 54.71,83.50 C49.90,87.32 35.94,105.46 37.11,106.36 C37.33,106.52 39.19,107.67 41.25,108.91 C45.05,111.20 45.65,112.43 44.12,114.84 C43.43,115.93 42.49,115.78 39.18,114.09 C36.92,112.94 34.59,112.00 33.99,112.00 C31.46,112.00 26.03,130.85 26.01,139.71 L 26.00 144.92 L 33.75 145.21 L 41.50 145.50 L 42.13 152.00 L 34.06 152.00 C29.14,152.00 26.00,152.41 26.00,153.04 C26.00,160.32 34.71,186.00 37.18,186.00 C37.65,186.00 39.82,184.88 42.00,183.50 C47.45,180.06 50.00,180.18 50.00,183.86 C50.00,186.23 49.23,187.13 45.50,189.11 C43.03,190.42 41.00,191.79 41.00,192.16 C41.00,193.46 48.77,202.57 53.23,206.50 C59.39,211.94 68.75,218.47 73.00,220.31 C82.70,224.51 87.94,226.32 95.37,227.99 ZM 96.68 248.55 C106.35,250.27 126.49,249.73 137.60,247.47 C164.10,242.06 190.09,224.84 206.21,202.00 C211.31,194.77 216.70,184.37 215.81,183.48 C215.49,183.16 212.89,183.21 210.03,183.59 C205.01,184.26 199.00,187.84 199.00,190.16 C199.00,190.71 197.02,193.71 194.59,196.83 C173.85,223.53 146.66,237.25 114.50,237.25 C95.99,237.24 82.46,233.84 67.02,225.32 C44.11,212.66 29.05,194.71 21.45,171.00 C19.16,163.84 18.65,160.21 18.26,148.00 C17.69,130.27 19.50,121.73 27.03,106.50 C36.22,87.93 49.17,75.44 69.50,65.55 C81.67,59.63 88.94,57.58 103.64,55.92 C134.83,52.40 167.05,63.86 186.84,85.52 C192.19,91.37 199.11,101.01 200.31,104.27 C201.27,106.91 203.70,107.43 206.49,105.60 C210.09,103.24 210.53,99.98 207.96,94.87 C196.84,72.82 170.15,52.70 143.00,45.90 C134.54,43.78 131.36,43.53 114.00,43.60 C96.23,43.66 93.62,43.90 84.66,46.30 C66.82,51.07 43.12,64.40 36.86,73.19 C35.76,74.74 34.25,76.00 33.50,76.00 C32.75,76.00 29.19,79.93 25.58,84.73 C15.04,98.77 9.34,112.12 6.33,129.84 C3.31,147.57 7.76,174.83 16.49,191.99 C30.52,219.60 63.15,242.61 96.68,248.55 ZM 0.00 0.00 L 0.17 133.50 L 2.13 124.00 C3.34,118.18 3.91,112.44 3.61,109.17 C3.22,104.85 3.69,102.43 6.06,96.50 C7.68,92.47 9.00,88.49 9.00,87.67 C9.00,86.84 10.82,84.65 13.05,82.80 C16.12,80.25 17.40,78.25 18.36,74.47 C19.27,70.92 20.18,69.40 21.57,69.15 C22.63,68.96 24.62,67.80 26.00,66.57 C27.38,65.34 33.10,61.26 38.73,57.50 C48.56,50.93 49.04,50.73 50.88,52.39 C52.71,54.05 53.09,53.98 59.15,50.89 C62.64,49.11 70.45,45.97 76.50,43.90 L 87.50 40.15 L 87.79 32.58 L 88.08 25.00 L 112.97 25.00 C134.26,25.00 138.08,24.77 139.43,23.43 C140.59,22.26 141.00,19.80 141.00,13.91 C141.00,6.03 140.98,5.96 137.75,3.99 C134.80,2.19 132.57,2.00 113.50,1.90 C101.41,1.84 93.56,1.46 95.00,1.00 C96.38,0.56 75.56,0.15 48.75,0.10 ZM 120.67 162.35 C114.49,165.29 107.63,163.97 102.32,158.83 C89.54,146.44 104.25,126.64 121.15,133.47 C122.37,133.96 126.81,130.28 137.93,119.57 C150.41,107.54 153.56,105.00 155.99,105.00 C159.26,105.00 161.49,107.87 160.54,110.87 C160.23,111.86 153.29,118.93 145.11,126.58 C136.94,134.24 130.56,140.84 130.94,141.26 C131.32,141.68 144.65,141.64 160.56,141.17 C176.48,140.71 190.05,140.52 190.71,140.75 C191.38,140.99 192.19,142.02 192.51,143.04 C192.94,144.38 194.26,144.97 197.30,145.19 C201.23,145.48 201.50,145.69 201.50,148.50 C201.50,151.35 201.27,151.51 197.00,151.77 C194.52,151.92 191.52,152.55 190.31,153.16 C188.79,153.93 179.27,154.13 159.09,153.81 L 130.06 153.34 L 127.10 157.02 C125.47,159.05 122.58,161.45 120.67,162.35 ZM 198.98 63.20 C202.54,65.85 205.91,67.86 206.48,67.68 C207.04,67.49 209.41,64.90 211.74,61.92 C217.76,54.21 217.36,52.73 207.50,46.21 C196.19,38.74 193.77,36.90 194.40,36.27 C194.70,35.96 195.71,36.34 196.63,37.11 C197.55,37.87 198.58,38.40 198.90,38.27 C199.23,38.15 201.07,38.48 203.00,39.02 C207.73,40.33 209.00,40.25 209.00,38.62 C209.00,36.06 204.03,26.00 202.76,26.00 C201.22,26.00 188.69,30.29 188.00,31.05 C187.73,31.36 185.95,31.58 184.05,31.55 C180.96,31.51 180.20,32.08 176.85,37.00 C176.70,37.22 176.55,37.44 176.41,37.64 C174.24,40.83 172.98,42.68 173.19,44.34 C173.50,46.72 176.88,48.71 185.00,53.74 C189.12,56.30 195.41,60.56 198.98,63.20 ZM 156.22 88.25 C155.38,89.21 154.36,90.00 153.96,90.00 C153.55,90.00 152.26,89.21 151.08,88.25 L 148.94 86.50 L 152.55 80.75 C156.31,74.75 156.93,74.36 160.01,76.00 C161.83,76.98 161.83,77.14 159.82,81.75 C158.68,84.36 157.06,87.29 156.22,88.25 ZM 116.79 221.33 C116.54,227.64 116.26,228.53 114.49,228.79 C111.27,229.25 110.00,227.03 110.00,220.92 C110.00,214.66 111.52,212.40 114.99,213.50 C116.90,214.10 117.06,214.80 116.79,221.33 ZM 77.24 212.23 C74.13,217.74 72.67,218.66 69.75,216.93 C67.34,215.51 67.53,214.41 71.10,208.84 C74.30,203.86 76.77,202.81 78.98,205.48 C79.98,206.69 79.66,207.95 77.24,212.23 ZM 110.22 151.44 C114.34,154.33 119.00,152.59 119.00,148.16 C119.00,144.67 117.35,143.00 113.87,143.00 C108.46,143.00 106.07,148.53 110.22,151.44 ZM 117.50 71.50 C117.50,78.31 117.43,78.51 114.88,78.80 C111.15,79.24 110.02,75.14 111.64,67.07 C112.18,64.36 112.66,63.94 114.89,64.20 C117.43,64.49 117.50,64.70 117.50,71.50 Z" fill="rgb(35,50,68)"/>
<path d="M 0.00 0.00 L 48.75 0.10 C75.56,0.15 96.38,0.56 95.00,1.00 C93.56,1.46 101.41,1.84 113.50,1.90 C132.57,2.00 134.80,2.19 137.75,3.99 C140.98,5.96 141.00,6.03 141.00,13.91 C141.00,15.27 140.98,16.44 140.93,17.46 C140.90,16.37 140.84,15.12 140.79,13.69 C140.51,5.84 140.41,5.55 137.42,3.81 C134.61,2.17 132.42,2.07 112.58,2.67 C95.39,3.19 89.51,3.31 87.58,6.14 C86.58,7.60 86.65,9.80 86.75,13.17 C86.75,13.29 86.75,13.41 86.76,13.53 C86.88,17.63 87.57,21.21 88.50,22.64 L 90.05 25.00 L 88.08 25.00 L 87.79 32.58 L 87.50 40.15 L 76.50 43.90 C70.45,45.97 62.64,49.11 59.15,50.89 C53.09,53.98 52.71,54.05 50.88,52.39 C49.17,50.84 48.64,50.91 40.65,56.22 C45.75,52.51 50.50,48.70 50.50,47.98 C50.50,46.08 56.23,44.13 62.03,44.06 C68.27,43.98 73.90,39.94 73.96,35.50 C73.98,34.40 73.52,31.82 72.95,29.76 C72.15,26.87 71.29,25.89 69.21,25.46 C67.72,25.15 64.11,23.97 61.20,22.83 C57.25,21.29 54.38,20.88 49.93,21.20 C42.44,21.74 40.97,22.99 43.26,26.86 C44.89,29.62 44.86,29.76 42.22,32.29 C40.72,33.72 33.42,39.12 26.00,44.28 C18.58,49.44 12.35,54.45 12.16,55.42 C11.71,57.76 16.08,62.49 17.12,60.80 C17.69,59.88 19.05,60.09 22.69,61.69 C25.34,62.85 27.95,63.84 28.50,63.88 C28.90,63.92 30.13,63.27 31.83,62.23 C29.01,64.22 26.79,65.86 26.00,66.57 C24.62,67.80 22.63,68.96 21.57,69.15 C20.18,69.40 19.27,70.92 18.36,74.47 C17.40,78.25 16.12,80.25 13.05,82.80 C10.82,84.65 9.00,86.84 9.00,87.67 C9.00,88.49 7.68,92.47 6.06,96.50 C3.69,102.43 3.22,104.85 3.61,109.17 C3.91,112.44 3.34,118.18 2.13,124.00 L 0.17 133.50 ZM 202.58 20.76 C200.98,18.32 196.68,7.21 195.62,2.75 L 194.96 0.00 L 223.00 0.00 L 223.00 2.33 L 222.79 8.66 L 222.50 17.32 L 216.00 19.50 C204.85,23.24 204.24,23.29 202.58,20.76 ZM 174.53 46.66 C173.72,45.85 173.29,45.11 173.19,44.34 C172.98,42.68 174.24,40.83 176.41,37.64 C176.55,37.44 176.70,37.22 176.85,37.00 C180.20,32.08 180.96,31.51 184.05,31.55 C185.95,31.58 187.73,31.36 188.00,31.05 C188.69,30.29 201.22,26.00 202.76,26.00 C204.03,26.00 209.00,36.06 209.00,38.62 C209.00,40.25 207.73,40.33 203.00,39.02 C201.07,38.48 199.23,38.15 198.90,38.27 C198.58,38.40 197.55,37.87 196.63,37.11 C195.71,36.34 194.70,35.96 194.40,36.27 C193.86,36.81 195.56,38.24 203.17,43.34 C202.99,43.23 202.81,43.11 202.62,43.00 C199.45,41.08 194.17,37.78 190.88,35.69 C187.50,33.53 183.95,32.01 182.73,32.19 C180.01,32.58 172.87,41.82 173.23,44.48 C173.31,45.07 173.81,45.87 174.53,46.66 ZM 120.67 162.35 C122.58,161.45 125.47,159.05 127.10,157.02 L 130.06 153.34 L 159.09 153.81 C179.27,154.13 188.79,153.93 190.31,153.16 C191.52,152.55 194.52,151.92 197.00,151.77 C201.27,151.51 201.50,151.35 201.50,148.50 C201.50,145.69 201.23,145.48 197.30,145.19 C194.26,144.97 192.94,144.38 192.51,143.04 C192.19,142.02 191.38,140.99 190.71,140.75 C191.38,140.99 192.18,142.00 192.50,143.00 C192.93,144.37 194.32,144.90 198.16,145.16 L 202.95 145.48 C202.97,151.83 202.35,158.14 201.07,163.50 C200.48,165.97 199.66,168.73 198.74,171.44 C200.57,165.68 202.00,159.66 202.00,156.35 L 202.00 152.49 L 197.25 152.85 C194.64,153.05 191.95,153.66 191.28,154.20 C190.53,154.82 178.90,155.07 160.38,154.88 L 130.70 154.57 L 129.16 157.03 C126.24,161.72 123.68,163.96 119.39,165.59 C113.60,167.81 109.48,166.86 104.18,162.07 C99.96,158.27 97.77,153.54 97.51,148.96 C97.73,152.36 99.22,155.82 102.32,158.83 C107.63,163.97 114.49,165.29 120.67,162.35 ZM 95.37 227.99 C87.94,226.32 82.70,224.51 73.00,220.31 C68.75,218.47 59.39,211.94 53.23,206.50 C48.77,202.57 41.00,193.46 41.00,192.16 C41.00,191.79 43.03,190.42 45.50,189.11 C49.23,187.13 50.00,186.23 50.00,183.86 C50.00,182.74 49.77,181.96 49.29,181.49 C49.92,181.93 50.38,182.66 50.63,183.67 C51.13,185.67 50.80,186.74 49.30,187.96 C47.22,189.64 44.07,194.69 45.75,193.66 C46.27,193.33 46.74,194.52 46.78,196.28 C46.85,198.90 48.13,200.70 53.68,206.01 C59.74,211.80 69.09,218.57 67.52,216.04 C67.06,215.30 68.79,212.14 70.84,209.25 C67.52,214.47 67.40,215.55 69.75,216.93 C72.67,218.66 74.13,217.74 77.24,212.23 C79.66,207.95 79.98,206.69 78.98,205.48 C77.70,203.93 76.33,203.63 74.79,204.62 C75.26,204.23 75.66,204.00 75.94,204.00 C80.31,204.00 81.05,208.07 77.81,214.29 C76.60,216.61 75.52,219.06 75.40,219.74 C75.12,221.31 82.41,224.61 91.50,227.03 C95.35,228.05 101.09,228.91 104.25,228.94 L 110.00 229.00 L 110.00 222.12 C110.00,221.89 110.00,221.67 110.00,221.45 C110.08,227.16 111.36,229.24 114.49,228.79 C116.26,228.53 116.54,227.64 116.79,221.33 C117.06,214.80 116.90,214.10 114.99,213.50 C113.29,212.96 112.05,213.23 111.24,214.39 C112.04,213.21 113.30,212.90 115.19,213.17 C117.23,213.46 117.58,214.23 118.19,219.75 C118.57,223.18 119.13,226.41 119.45,226.91 C119.76,227.42 119.45,228.09 118.76,228.42 C118.07,228.74 121.32,228.81 126.00,228.57 C129.31,228.40 133.29,227.78 137.30,226.85 C133.83,227.79 130.49,228.56 128.00,228.96 C118.36,230.48 104.57,230.07 95.37,227.99 ZM 47.79 181.01 C46.48,181.05 44.56,181.89 42.00,183.50 C39.82,184.88 37.65,186.00 37.18,186.00 C34.71,186.00 26.00,160.32 26.00,153.04 C26.00,152.41 29.14,152.00 34.06,152.00 L 40.90 152.00 C39.86,152.67 37.81,152.94 34.00,153.23 L 30.50 153.50 L 30.68 158.70 C30.79,161.56 32.25,168.05 33.93,173.12 C35.62,178.20 37.00,182.97 37.00,183.74 C37.00,185.32 40.04,184.71 43.71,182.40 C45.28,181.41 46.67,180.95 47.79,181.01 ZM 156.22 88.25 C157.06,87.29 158.68,84.36 159.82,81.75 C161.83,77.14 161.83,76.98 160.01,76.00 C157.00,74.39 156.34,74.73 152.80,80.34 C156.02,74.99 156.80,73.63 156.42,73.07 C156.24,72.82 155.82,72.73 155.28,72.51 C144.31,68.06 127.90,64.00 120.79,64.00 C118.13,64.00 118.08,64.11 117.79,71.25 C117.64,75.14 117.54,76.94 117.04,77.84 C117.48,76.97 117.50,75.22 117.50,71.50 C117.50,64.70 117.43,64.49 114.89,64.20 C112.66,63.94 112.18,64.36 111.64,67.07 C111.27,68.88 111.05,70.49 110.96,71.89 C110.93,71.07 110.90,70.17 110.88,69.17 L 110.74 62.85 L 103.12 63.51 C99.49,63.82 94.36,64.85 89.81,66.01 C94.34,64.76 98.86,63.78 102.50,63.35 C122.05,61.02 142.79,64.83 158.81,73.69 C162.52,75.74 166.94,78.86 171.21,82.31 C164.17,76.93 162.80,77.39 159.77,82.82 C158.02,85.96 156.80,87.86 155.70,88.80 C155.88,88.63 156.05,88.44 156.22,88.25 ZM 38.65 145.39 L 26.00 144.92 L 26.01 139.71 C26.03,130.85 31.46,112.00 33.99,112.00 C34.59,112.00 36.92,112.94 39.18,114.09 C42.49,115.78 43.43,115.93 44.12,114.84 C44.13,114.83 44.13,114.82 44.14,114.81 C44.10,114.87 44.07,114.93 44.03,114.99 C43.23,116.25 42.59,116.28 39.79,115.19 C34.76,113.23 34.75,113.24 32.71,117.45 C30.75,121.49 27.67,142.91 28.86,144.20 C29.21,144.58 32.20,145.03 35.50,145.20 C36.82,145.26 37.84,145.32 38.65,145.39 ZM 200.31 104.27 C199.32,101.57 194.40,94.50 189.71,88.83 C192.27,91.86 194.73,95.13 197.12,98.68 C201.87,105.72 203.55,107.60 202.39,104.58 C202.09,103.80 202.31,102.29 202.88,101.23 C203.81,99.49 205.00,95.07 205.24,92.50 C205.73,87.18 189.80,69.92 175.92,60.72 C175.20,60.25 174.48,59.78 173.77,59.33 C188.66,68.75 201.19,81.45 207.96,94.87 C210.53,99.98 210.09,103.24 206.49,105.60 C203.70,107.43 201.27,106.91 200.31,104.27 ZM 210.95 194.55 C213.22,189.98 211.23,189.00 204.61,189.00 C200.92,189.00 200.26,189.25 196.77,193.90 C198.10,192.01 199.00,190.53 199.00,190.16 C199.00,187.84 205.01,184.26 210.03,183.59 C212.89,183.21 215.49,183.16 215.81,183.48 C216.42,184.09 214.10,189.12 210.95,194.55 ZM 198.98 63.20 C197.30,61.96 195.02,60.36 192.65,58.74 C202.49,65.11 203.51,65.63 202.59,64.15 C201.98,63.16 205.67,59.59 208.22,58.69 C209.16,58.36 210.22,58.55 210.57,59.11 C211.54,60.68 215.00,57.04 215.00,54.45 C215.00,52.57 212.85,50.06 208.56,46.92 C217.38,52.85 217.54,54.49 211.74,61.92 C209.41,64.90 207.04,67.49 206.48,67.68 C205.91,67.86 202.54,65.85 198.98,63.20 ZM 81.29 68.70 C80.01,69.24 79.32,69.71 79.51,70.02 C80.23,71.19 78.21,72.28 74.84,72.54 C73.28,72.67 70.89,73.49 69.54,74.38 C68.18,75.27 66.62,76.00 66.08,76.00 C65.43,76.00 63.58,77.04 61.06,78.77 C63.55,77.05 65.40,76.00 66.01,76.00 C66.52,76.00 69.06,74.65 71.65,73.00 C73.79,71.65 77.27,70.13 81.29,68.70 ZM 19.55 126.58 C18.28,132.76 17.98,139.26 18.26,148.00 C17.89,136.42 18.06,132.86 19.55,126.58 ZM 44.16 82.70 C46.58,80.26 49.11,78.04 51.70,76.07 C54.06,74.28 57.18,72.29 60.64,70.30 C54.39,74.02 48.94,78.10 44.16,82.70 ZM 79.25 61.25 C82.25,60.06 84.97,59.13 87.14,58.62 C93.71,57.05 100.29,56.05 106.82,55.61 C105.76,55.70 104.70,55.80 103.64,55.92 C93.25,57.09 86.57,58.46 79.25,61.25 ZM 202.07 132.82 C200.79,125.54 198.01,116.29 195.95,112.98 C196.97,114.44 197.94,117.23 199.55,121.88 C200.66,125.07 201.50,128.81 202.07,132.82 ZM 184.22 225.15 C192.58,218.43 200.10,210.51 206.41,201.64 C206.88,200.98 207.33,200.35 207.74,199.76 C207.23,200.53 206.72,201.28 206.21,202.00 C200.12,210.63 192.62,218.46 184.22,225.15 ZM 97.51 147.14 C97.79,142.36 100.21,137.91 104.68,135.03 C100.57,137.84 97.83,142.35 97.51,147.14 ZM 140.09 22.45 C139.91,22.85 139.69,23.17 139.43,23.43 C138.76,24.09 137.50,24.48 133.82,24.71 C137.32,24.40 139.15,23.76 140.07,22.48 C140.08,22.47 140.08,22.46 140.09,22.45 ZM 185.92 96.76 C183.92,94.38 181.56,91.77 179.32,89.47 C181.94,92.01 184.20,94.48 185.81,96.62 C185.85,96.66 185.88,96.71 185.92,96.76 ZM 138.55 58.05 C145.82,59.73 152.83,62.18 159.43,65.40 C160.24,65.79 161.04,66.20 161.83,66.61 C154.54,62.85 146.70,59.97 138.55,58.05 ZM 149.05 86.59 L 151.08 88.25 C151.25,88.39 151.41,88.52 151.58,88.64 C151.54,88.62 151.49,88.59 151.44,88.55 L 148.88 86.87 ZM 114.78 78.81 C113.07,79.00 112.12,78.71 111.59,77.03 C112.21,78.35 113.28,78.96 114.78,78.81 ZM 182.87 52.42 C180.52,50.97 178.66,49.80 177.21,48.80 C178.35,49.52 180.40,50.83 182.87,52.42 ZM 23.91 113.19 C24.86,110.94 25.90,108.69 27.04,106.49 L 27.03 106.50 C25.86,108.87 24.82,111.09 23.91,113.19 ZM 121.15 133.46 C121.51,133.61 122.15,133.40 123.16,132.74 C122.15,133.40 121.51,133.62 121.15,133.47 C120.59,133.25 120.04,133.05 119.49,132.88 C120.05,133.04 120.61,133.24 121.15,133.46 ZM 44.64 111.73 C44.18,110.87 43.09,110.01 41.25,108.91 C43.10,110.02 44.18,110.87 44.64,111.73 ZM 155.97 218.95 C156.18,218.39 155.92,218.00 155.07,218.00 C155.92,218.00 156.18,218.39 155.97,218.95 ZM 190.19 112.91 C189.67,113.16 189.10,113.45 188.46,113.77 C189.09,113.45 189.66,113.16 190.19,112.91 ZM 41.83 148.89 L 41.77 148.34 C41.79,148.46 41.80,148.58 41.81,148.72 C41.82,148.78 41.82,148.84 41.83,148.89 ZM 153.09 221.45 C153.14,221.43 153.20,221.40 153.25,221.37 C153.24,221.38 153.22,221.38 153.21,221.39 C153.17,221.41 153.13,221.43 153.09,221.45 Z" fill="rgb(153,156,161)"/>
<path d="M 114.78 78.81 C114.81,78.81 114.85,78.81 114.88,78.80 C115.67,78.71 116.22,78.63 116.60,78.36 C116.27,78.63 115.84,78.74 115.25,78.82 L 113.00 79.14 L 113.00 104.57 C113.00,129.54 112.96,130.00 110.95,130.00 C108.42,130.00 103.25,132.55 100.29,135.26 L 98.07 137.28 L 89.40 129.89 C84.64,125.83 74.83,117.62 67.62,111.66 C60.40,105.70 52.59,99.24 50.25,97.29 C46.81,94.43 45.72,93.99 44.55,94.96 C44.49,95.01 44.43,95.07 44.36,95.13 C48.15,90.28 52.45,85.30 54.71,83.50 C57.03,81.66 59.22,80.03 61.06,78.77 C63.58,77.04 65.43,76.00 66.08,76.00 C66.62,76.00 68.18,75.27 69.54,74.38 C70.89,73.49 73.28,72.67 74.84,72.54 C78.21,72.28 80.23,71.19 79.51,70.02 C79.32,69.71 80.01,69.24 81.29,68.70 C83.97,67.74 86.89,66.82 89.81,66.01 C94.36,64.85 99.49,63.82 103.12,63.51 L 110.74 62.85 L 110.88 69.17 C110.90,70.17 110.93,71.07 110.96,71.89 C110.82,74.14 111.03,75.87 111.59,77.03 C112.12,78.71 113.07,79.00 114.78,78.81 ZM 140.09 22.45 C140.08,22.46 140.08,22.47 140.07,22.48 C139.15,23.76 137.32,24.40 133.82,24.71 C130.05,24.94 123.75,25.00 112.97,25.00 L 90.05 25.00 L 88.50 22.64 C87.57,21.21 86.88,17.63 86.76,13.53 C86.75,13.41 86.75,13.29 86.75,13.17 C86.65,9.80 86.58,7.60 87.58,6.14 C89.51,3.31 95.39,3.19 112.58,2.67 C132.42,2.07 134.61,2.17 137.42,3.81 C140.41,5.55 140.51,5.84 140.79,13.69 C140.84,15.12 140.90,16.37 140.93,17.46 C140.82,19.89 140.56,21.43 140.09,22.45 ZM 78.00 73.04 C78.00,73.10 78.00,73.16 78.00,73.22 C77.99,73.46 77.99,73.64 78.08,73.75 C78.37,74.10 79.61,73.67 84.85,71.84 C85.23,71.70 85.64,71.56 86.08,71.41 C94.03,68.63 96.37,67.32 91.50,68.37 C89.85,68.73 86.99,69.25 85.14,69.53 C81.16,70.14 78.00,71.69 78.00,73.04 ZM 40.24 100.66 C38.44,103.39 36.88,106.09 37.11,106.36 C36.72,106.04 38.08,103.73 40.24,100.66 Z" fill="rgb(247,129,26)"/>
<path d="M 96.68 248.55 C63.15,242.61 30.52,219.60 16.49,191.99 C7.76,174.83 3.31,147.57 6.33,129.84 C9.34,112.12 15.04,98.77 25.58,84.73 C29.19,79.93 32.75,76.00 33.50,76.00 C34.25,76.00 35.76,74.74 36.86,73.19 C43.12,64.40 66.82,51.07 84.66,46.30 C93.62,43.90 96.23,43.66 114.00,43.60 C131.36,43.53 134.54,43.78 143.00,45.90 C154.80,48.86 164.80,53.36 175.92,60.72 C189.80,69.92 205.73,87.18 205.24,92.50 C205.00,95.07 203.81,99.49 202.88,101.23 C202.31,102.29 202.09,103.80 202.39,104.58 C203.55,107.60 201.87,105.72 197.12,98.68 C186.75,83.31 175.14,73.06 159.43,65.40 C138.06,54.98 112.46,52.58 87.14,58.62 C78.28,60.73 60.12,69.67 51.70,76.07 C37.15,87.12 24.63,106.42 19.94,125.00 C18.09,132.34 17.86,135.48 18.26,148.00 C18.65,160.21 19.16,163.84 21.45,171.00 C29.05,194.71 44.11,212.66 67.02,225.32 C82.46,233.84 95.99,237.24 114.50,237.25 C147.22,237.25 175.48,222.65 195.76,195.25 C200.16,189.30 200.59,189.00 204.61,189.00 C213.80,189.00 214.06,190.89 206.41,201.64 C189.68,225.16 164.40,242.00 137.60,247.47 C126.49,249.73 106.35,250.27 96.68,248.55 ZM 91.50 227.03 C82.41,224.61 75.12,221.31 75.40,219.74 C75.52,219.06 76.60,216.61 77.81,214.29 C81.05,208.07 80.31,204.00 75.94,204.00 C74.03,204.00 66.63,214.59 67.52,216.04 C69.09,218.57 59.74,211.80 53.68,206.01 C48.13,200.70 46.85,198.90 46.78,196.28 C46.74,194.52 46.27,193.33 45.75,193.66 C44.07,194.69 47.22,189.64 49.30,187.96 C50.80,186.74 51.13,185.67 50.63,183.67 C49.87,180.64 47.26,180.16 43.71,182.40 C40.04,184.71 37.00,185.32 37.00,183.74 C37.00,182.97 35.62,178.20 33.93,173.12 C32.25,168.05 30.79,161.56 30.68,158.70 L 30.50 153.50 L 34.00 153.23 C41.35,152.66 42.15,152.20 41.81,148.72 C41.50,145.53 41.45,145.50 35.50,145.20 C32.20,145.03 29.21,144.58 28.86,144.20 C27.67,142.91 30.75,121.49 32.71,117.45 C34.75,113.24 34.76,113.23 39.79,115.19 C42.59,116.28 43.23,116.25 44.03,114.99 C45.65,112.42 45.11,111.23 41.25,108.91 C39.19,107.67 37.33,106.52 37.12,106.36 C36.59,105.96 42.81,96.40 44.55,94.96 C45.72,93.99 46.81,94.43 50.25,97.29 C52.59,99.24 60.40,105.70 67.62,111.66 C74.83,117.62 84.64,125.83 89.40,129.89 L 98.07 137.28 L 100.29 135.26 C103.25,132.55 108.42,130.00 110.95,130.00 C112.96,130.00 113.00,129.54 113.00,104.57 L 113.00 79.14 L 115.25 78.82 C117.31,78.53 117.52,77.90 117.79,71.25 C118.08,64.11 118.13,64.00 120.79,64.00 C127.90,64.00 144.31,68.06 155.28,72.51 C157.22,73.30 157.60,72.35 150.79,83.69 L 148.88 86.87 L 151.44 88.55 C154.63,90.64 155.90,89.76 159.77,82.82 C163.16,76.74 164.47,76.90 173.99,84.50 C179.62,88.98 190.96,102.04 190.99,104.07 C191.00,104.38 188.30,105.92 185.00,107.50 C180.28,109.76 179.00,110.85 179.00,112.63 C179.00,116.75 181.85,117.11 188.40,113.80 C193.99,110.97 194.45,110.89 195.65,112.54 C198.23,116.06 202.21,130.27 202.72,137.80 L 203.25 145.50 L 198.16 145.16 C194.32,144.90 192.93,144.37 192.50,143.00 C192.18,142.00 191.38,140.99 190.71,140.75 C190.05,140.52 176.48,140.71 160.56,141.17 C144.65,141.64 131.32,141.68 130.94,141.26 C130.56,140.84 136.94,134.24 145.11,126.58 C153.29,118.93 160.23,111.86 160.54,110.87 C161.49,107.87 159.26,105.00 155.99,105.00 C153.56,105.00 150.41,107.54 137.93,119.57 C126.76,130.33 122.38,133.96 121.15,133.46 C116.66,131.61 111.05,131.80 106.61,133.95 C95.53,139.31 94.33,153.19 104.18,162.07 C109.48,166.86 113.60,167.81 119.39,165.59 C123.68,163.96 126.24,161.72 129.16,157.03 L 130.70 154.57 L 160.38 154.88 C178.90,155.07 190.53,154.82 191.28,154.20 C191.95,153.66 194.64,153.05 197.25,152.85 L 202.00 152.49 L 202.00 156.35 C202.00,163.98 194.42,186.00 191.80,186.00 C191.30,186.00 189.24,184.88 187.21,183.50 C183.15,180.74 181.01,180.39 179.20,182.20 C177.09,184.31 177.89,185.75 182.75,188.55 C185.36,190.06 187.68,191.44 187.90,191.63 C189.69,193.13 172.61,210.08 164.46,214.89 L 161.31 216.75 L 158.16 210.38 C154.88,203.71 153.15,202.71 149.53,205.35 C147.77,206.64 147.83,206.95 150.92,212.35 C152.69,215.46 154.56,218.00 155.07,218.00 C156.98,218.00 155.90,220.00 153.25,221.37 C146.35,224.94 134.17,228.16 126.00,228.57 C121.32,228.81 118.07,228.74 118.76,228.42 C119.45,228.09 119.76,227.42 119.45,226.91 C119.13,226.41 118.57,223.18 118.19,219.75 C117.58,214.23 117.23,213.46 115.19,213.17 C111.17,212.60 110.00,214.62 110.00,222.12 L 110.00 229.00 L 104.25 228.94 C101.09,228.91 95.35,228.05 91.50,227.03 ZM 110.22 151.44 C106.07,148.53 108.46,143.00 113.87,143.00 C117.35,143.00 119.00,144.67 119.00,148.16 C119.00,152.59 114.34,154.33 110.22,151.44 ZM 78.00 73.04 C78.00,71.69 81.16,70.14 85.14,69.53 C86.99,69.25 89.85,68.73 91.50,68.37 C96.37,67.32 94.03,68.63 86.08,71.41 C77.55,74.39 78.00,74.29 78.00,73.04 ZM 191.12 57.75 C184.96,53.76 178.48,49.59 176.72,48.48 C174.95,47.38 173.38,45.58 173.23,44.48 C172.87,41.82 180.01,32.58 182.73,32.19 C183.95,32.01 187.50,33.53 190.88,35.69 C194.17,37.78 199.45,41.08 202.62,43.00 C210.87,48.02 215.00,51.84 215.00,54.45 C215.00,57.04 211.54,60.68 210.57,59.11 C210.22,58.55 209.16,58.36 208.22,58.69 C205.67,59.59 201.98,63.16 202.59,64.15 C203.56,65.71 202.38,65.05 191.12,57.75 ZM 22.69 61.69 C19.05,60.09 17.69,59.88 17.12,60.80 C16.08,62.49 11.71,57.76 12.16,55.42 C12.35,54.45 18.58,49.44 26.00,44.28 C33.42,39.12 40.72,33.72 42.22,32.29 C44.86,29.76 44.89,29.62 43.26,26.86 C40.97,22.99 42.44,21.74 49.93,21.20 C54.38,20.88 57.25,21.29 61.20,22.83 C64.11,23.97 67.72,25.15 69.21,25.46 C71.29,25.89 72.15,26.87 72.95,29.76 C73.52,31.82 73.98,34.40 73.96,35.50 C73.90,39.94 68.27,43.98 62.03,44.06 C56.23,44.13 50.50,46.08 50.50,47.98 C50.50,49.47 30.35,64.04 28.50,63.88 C27.95,63.84 25.34,62.85 22.69,61.69 Z" fill="rgb(227,228,228)"/>
</g>
</svg>